HIERARCHY
ROOT Junyuan_V1:Solving:Hips
{
	OFFSET 0.000000 0.000000 0.000000
	CHANNELS 6 Xposition Yposition Zposition Xrotation Yrotation Zrotation
	JOINT Junyuan_V1:Solving:Spine
	{
		OFFSET 0.000000 -12.985630 2.462989
		CHANNELS 6 Xposition Yposition Zposition Xrotation Yrotation Zrotation
		JOINT Junyuan_V1:Solving:Spine1
		{
			OFFSET 0.000000 -8.692390 1.532706
			CHANNELS 6 Xposition Yposition Zposition Xrotation Yrotation Zrotation
			JOINT Junyuan_V1:Solving:Spine2
			{
				OFFSET 0.000000 -8.792902 0.769282
				CHANNELS 6 Xposition Yposition Zposition Xrotation Yrotation Zrotation
				JOINT Junyuan_V1:Solving:Spine3
				{
					OFFSET 0.000000 -8.826483 0.000000
					CHANNELS 6 Xposition Yposition Zposition Xrotation Yrotation Zrotation
					JOINT Junyuan_V1:Solving:Neck
					{
						OFFSET 0.000000 -11.348343 -1.134832
						CHANNELS 6 Xposition Yposition Zposition Xrotation Yrotation Zrotation
						JOINT Junyuan_V1:Solving:Neck1
						{
							OFFSET 0.000000 -7.624485 -0.667056
							CHANNELS 6 Xposition Yposition Zposition Xrotation Yrotation Zrotation
							JOINT Junyuan_V1:Solving:Head
							{
								OFFSET 0.000000 -7.537346 -1.329035
								CHANNELS 6 Xposition Yposition Zposition Xrotation Yrotation Zrotation
								JOINT Junyuan_V1:Solving:HeadEnd
								{
									OFFSET 0.000000 -9.728073 0.000003
									CHANNELS 6 Xposition Yposition Zposition Xrotation Yrotation Zrotation
									End Site
									{
										OFFSET 0.000000 -9.728081 0.000002
									}
								}
							}
						}
					}
					JOINT Junyuan_V1:Solving:RightShoulder
					{
						OFFSET 0.000000 -8.105961 -5.517343
						CHANNELS 6 Xposition Yposition Zposition Xrotation Yrotation Zrotation
						JOINT Junyuan_V1:Solving:RightArm
						{
							OFFSET -18.898018 -0.000008 0.000000
							CHANNELS 6 Xposition Yposition Zposition Xrotation Yrotation Zrotation
							JOINT Junyuan_V1:Solving:RightForeArm
							{
								OFFSET -28.740982 -0.000008 0.000000
								CHANNELS 6 Xposition Yposition Zposition Xrotation Yrotation Zrotation
								JOINT Junyuan_V1:Solving:RightHand
								{
									OFFSET -20.953522 -0.000008 0.000000
									CHANNELS 6 Xposition Yposition Zposition Xrotation Yrotation Zrotation
									JOINT Junyuan_V1:Solving:RightHandThumb1
									{
										OFFSET -4.628059 2.916191 -3.441377
										CHANNELS 6 Xposition Yposition Zposition Xrotation Yrotation Zrotation
										End Site
										{
											OFFSET -6.617699 -0.000004 -6.678891
										}
									}
									JOINT Junyuan_V1:Solving:RightHandMiddle1
									{
										OFFSET -12.341492 -0.000004 0.079112
										CHANNELS 6 Xposition Yposition Zposition Xrotation Yrotation Zrotation
										End Site
										{
											OFFSET -9.402214 -0.000004 0.000000
										}
									}
								}
							}
						}
					}
					JOINT Junyuan_V1:Solving:LeftShoulder
					{
						OFFSET 0.000000 -8.105961 -5.517343
						CHANNELS 6 Xposition Yposition Zposition Xrotation Yrotation Zrotation
						JOINT Junyuan_V1:Solving:LeftArm
						{
							OFFSET 18.898018 -0.000008 0.000000
							CHANNELS 6 Xposition Yposition Zposition Xrotation Yrotation Zrotation
							JOINT Junyuan_V1:Solving:LeftForeArm
							{
								OFFSET 28.740982 -0.000008 0.000000
								CHANNELS 6 Xposition Yposition Zposition Xrotation Yrotation Zrotation
								JOINT Junyuan_V1:Solving:LeftHand
								{
									OFFSET 20.953522 -0.000008 0.000000
									CHANNELS 6 Xposition Yposition Zposition Xrotation Yrotation Zrotation
									JOINT Junyuan_V1:Solving:LeftHandThumb1
									{
										OFFSET 4.628059 2.916191 -3.441377
										CHANNELS 6 Xposition Yposition Zposition Xrotation Yrotation Zrotation
										End Site
										{
											OFFSET 6.617699 -0.000004 -6.678891
										}
									}
									JOINT Junyuan_V1:Solving:LeftHandMiddle1
									{
										OFFSET 12.341492 -0.000004 0.079112
										CHANNELS 6 Xposition Yposition Zposition Xrotation Yrotation Zrotation
										End Site
										{
											OFFSET 9.402214 -0.000004 0.000000
										}
									}
								}
							}
						}
					}
				}
			}
		}
	}
	JOINT Junyuan_V1:Solving:RightUpLeg
	{
		OFFSET -11.141669 0.000000 0.000000
		CHANNELS 6 Xposition Yposition Zposition Xrotation Yrotation Zrotation
		JOINT Junyuan_V1:Solving:RightLeg
		{
			OFFSET 0.000000 42.399242 -0.000006
			CHANNELS 6 Xposition Yposition Zposition Xrotation Yrotation Zrotation
			JOINT Junyuan_V1:Solving:RightFoot
			{
				OFFSET 0.000000 39.245022 -0.000006
				CHANNELS 6 Xposition Yposition Zposition Xrotation Yrotation Zrotation
				JOINT Junyuan_V1:Solving:RightForeFoot
				{
					OFFSET 0.000000 3.261009 -0.000000
					CHANNELS 6 Xposition Yposition Zposition Xrotation Yrotation Zrotation
					JOINT Junyuan_V1:Solving:RightToeBase
					{
						OFFSET 0.000000 0.000000 -12.771147
						CHANNELS 6 Xposition Yposition Zposition Xrotation Yrotation Zrotation
						JOINT Junyuan_V1:Solving:RightToeBaseEnd
						{
							OFFSET 0.000000 0.000000 -4.049008
							CHANNELS 6 Xposition Yposition Zposition Xrotation Yrotation Zrotation
							End Site
							{
								OFFSET 0.000000 -4.049011 0.000000
							}
						}
					}
				}
			}
		}
	}
	JOINT Junyuan_V1:Solving:LeftUpLeg
	{
		OFFSET 11.141669 0.000000 0.000000
		CHANNELS 6 Xposition Yposition Zposition Xrotation Yrotation Zrotation
		JOINT Junyuan_V1:Solving:LeftLeg
		{
			OFFSET 0.000000 42.399242 -0.000006
			CHANNELS 6 Xposition Yposition Zposition Xrotation Yrotation Zrotation
			JOINT Junyuan_V1:Solving:LeftFoot
			{
				OFFSET 0.000000 39.245022 -0.000006
				CHANNELS 6 Xposition Yposition Zposition Xrotation Yrotation Zrotation
				JOINT Junyuan_V1:Solving:LeftForeFoot
				{
					OFFSET 0.000000 3.261009 -0.000000
					CHANNELS 6 Xposition Yposition Zposition Xrotation Yrotation Zrotation
					JOINT Junyuan_V1:Solving:LeftToeBase
					{
						OFFSET 0.000000 0.000000 -12.771147
						CHANNELS 6 Xposition Yposition Zposition Xrotation Yrotation Zrotation
						JOINT Junyuan_V1:Solving:LeftToeBaseEnd
						{
							OFFSET 0.000000 0.000000 -2.960146
							CHANNELS 6 Xposition Yposition Zposition Xrotation Yrotation Zrotation
							End Site
							{
								OFFSET 0.000000 -2.960144 0.000002
							}
						}
					}
				}
			}
		}
	}
}
MOTION
Frames: 4
Frame Time: 0.041667
11.615171 18.246302 -90.393181 90.907455 149.081569 3.598155 -0.000001 -12.985627 2.462987 8.310158 -0.062030 4.581981 -0.000004 -8.692400 1.532710 -0.849935 -0.448912 1.252907 0.000001 -8.792892 0.769275 -5.313772 -3.181512 0.659583 -0.000000 -8.826501 0.000006 -2.244939 -0.559055 0.886397 -0.000002 -11.348358 -1.134836 0.306244 8.065962 2.193197 -0.000004 -7.624496 -0.667057 4.759450 22.624325 -2.034742 -0.000001 -7.537362 -1.329046 14.557042 1.757639 -4.276679 0.000002 -9.728104 0.000004 -0.000000 0.000000 -0.000000 0.000004 -8.105968 -5.517344 -0.000003 13.362456 16.042135 -18.898003 -0.000018 -0.000003 -42.284902 -8.887882 -93.307091 -28.740986 -0.000012 0.000014 127.101132 -72.628741 128.395740 -20.953520 -0.000015 0.000005 0.007552 -0.058206 7.398066 -4.628100 2.916208 -3.441372 0.000003 0.000007 -0.000002 -12.341499 0.000003 0.079116 -0.000002 0.000004 -0.000000 0.000006 -8.105946 -5.517344 -0.000002 -10.998352 -11.178276 18.898022 0.000006 0.000006 -3.572653 38.727521 87.487340 28.741020 -0.000006 0.000009 8.146928 7.028949 -1.003617 20.953518 0.000001 0.000002 0.120849 0.782305 -8.781759 4.628050 2.916203 -3.441381 0.000002 -0.000003 -0.000002 12.341470 0.000001 0.079104 0.000000 0.000002 0.000001 -11.141673 0.000001 -0.000004 -0.198780 19.599151 2.848747 0.000003 42.399254 -0.000008 10.988087 0.000000 -0.000000 0.000004 39.245029 -0.000007 0.651063 -5.556151 -4.953361 -0.000001 3.261017 -0.000002 0.000001 0.000001 0.000000 -0.000000 0.000012 -12.771150 6.547063 0.000003 0.000000 0.000007 -0.000001 -4.049006 -0.000003 0.000001 -0.000001 11.141667 0.000025 0.000001 -2.066739 -1.359085 0.740872 -0.000000 42.399258 -0.000004 5.167686 -0.000001 0.000000 -0.000005 39.245014 -0.000008 -0.613541 -1.572643 -17.253157 -0.000003 3.261009 0.000000 -0.000000 -0.000005 0.000002 -0.000000 0.000019 -12.771142 -23.649679 -0.000004 0.000001 0.000001 -0.000001 -2.960145 -0.000004 0.000004 0.000002 
11.603746 18.264095 -90.396736 90.863256 148.903288 3.660556 0.000002 -12.985639 2.462988 8.321576 -0.045886 4.578413 -0.000001 -8.692396 1.532706 -0.840773 -0.450924 1.257318 0.000002 -8.792910 0.769280 -5.307594 -3.223726 0.664316 0.000007 -8.826474 -0.000003 -2.252245 -0.561679 0.878490 -0.000004 -11.348347 -1.134833 0.308574 8.089661 2.214629 0.000003 -7.624477 -0.667052 4.761234 22.712170 -2.029587 -0.000002 -7.537394 -1.329040 14.544534 1.763532 -4.290523 -0.000004 -9.728081 0.000015 -0.000002 0.000000 -0.000000 -0.000000 -8.105965 -5.517340 -0.000010 13.593189 16.363798 -18.898005 -0.000005 0.000004 -42.380528 -8.321709 -94.619615 -28.740973 0.000014 0.000005 121.412077 -70.945148 122.866238 -20.953514 0.000016 0.000008 0.039548 -0.316380 7.124339 -4.628029 2.916248 -3.441356 0.000003 0.000005 -0.000000 -12.341455 0.000038 0.079125 -0.000003 0.000002 -0.000001 -0.000003 -8.105961 -5.517340 -0.000007 -11.011284 -11.179466 18.898016 -0.000000 -0.000002 -3.578223 38.753909 87.494751 28.741013 -0.000005 0.000003 8.040897 6.961065 -0.980869 20.953518 0.000008 0.000001 0.135955 0.877077 -8.811591 4.628076 2.916214 -3.441376 -0.000002 -0.000002 0.000001 12.341460 0.000003 0.079106 -0.000001 0.000000 -0.000001 -11.141666 0.000009 -0.000001 -0.129532 20.402736 2.846716 0.000005 42.399246 -0.000005 10.789543 -0.000001 0.000000 -0.000003 39.245014 -0.000002 0.746756 -6.175139 -4.850890 -0.000002 3.261009 -0.000004 0.000001 -0.000002 0.000001 0.000007 0.000004 -12.771145 6.580789 0.000003 -0.000000 0.000002 -0.000007 -4.049008 0.000001 0.000000 0.000000 11.141668 0.000001 -0.000003 -1.833877 0.642799 0.791075 -0.000002 42.399246 -0.000006 4.527634 -0.000002 0.000001 -0.000003 39.245033 -0.000008 -0.330703 -3.322545 -17.072398 0.000000 3.261009 -0.000003 -0.000001 0.000003 0.000002 -0.000000 0.000008 -12.771138 -24.009209 0.000000 0.000002 -0.000000 -0.000008 -2.960143 -0.000003 -0.000002 0.000001 
11.578218 18.297394 -90.394142 90.804353 148.772886 3.648256 -0.000001 -12.985614 2.462985 8.334181 -0.065126 4.656041 0.000002 -8.692377 1.532701 -0.839045 -0.452910 1.263635 0.000000 -8.792887 0.769283 -5.301008 -3.248669 0.662622 0.000004 -8.826495 0.000004 -2.258683 -0.560698 0.893076 0.000001 -11.348338 -1.134834 0.335398 8.111505 2.261500 -0.000007 -7.624486 -0.667051 4.745076 22.804904 -2.062532 -0.000000 -7.537357 -1.329044 14.536637 1.771681 -4.323191 -0.000002 -9.728088 0.000014 -0.000000 -0.000000 -0.000002 -0.000002 -8.105980 -5.517345 -0.000007 13.765605 16.683282 -18.898031 -0.000015 -0.000004 -42.250584 -7.395627 -95.667188 -28.740999 0.000002 0.000011 120.419869 -70.565690 121.907962 -20.953522 0.000006 0.000009 0.069494 -0.736987 5.387246 -4.628085 2.916197 -3.441368 -0.000003 -0.000000 0.000006 -12.341473 0.000008 0.079110 -0.000002 0.000002 0.000004 -0.000003 -8.105972 -5.517344 -0.000001 -11.044872 -11.163456 18.898014 0.000031 0.000003 -3.557817 38.689439 87.470681 28.740969 -0.000007 0.000004 7.914339 6.928221 -0.960704 20.953505 -0.000006 -0.000000 0.153403 0.983849 -8.862754 4.628062 2.916203 -3.441370 -0.000001 -0.000005 0.000003 12.341505 0.000004 0.079112 0.000001 0.000001 -0.000003 -11.141668 0.000018 0.000002 0.119699 20.838139 2.831891 -0.000000 42.399254 -0.000008 10.182707 0.000002 -0.000001 -0.000004 39.245037 -0.000008 0.852921 -6.398633 -5.022023 -0.000005 3.261009 0.000003 0.000003 -0.000001 0.000000 -0.000002 0.000015 -12.771146 6.755045 0.000001 0.000000 -0.000001 -0.000000 -4.049008 -0.000001 -0.000000 0.000000 11.141665 0.000016 -0.000003 -1.794604 1.404898 0.882751 -0.000001 42.399277 -0.000012 4.280832 -0.000002 -0.000001 -0.000004 39.245041 -0.000005 -0.082126 -3.904575 -17.231365 0.000002 3.261009 -0.000001 -0.000001 0.000007 0.000002 0.000001 -0.000001 -12.771131 -24.016443 -0.000001 -0.000001 0.000001 0.000002 -2.960144 0.000005 0.000001 0.000004 
11.529129 18.322205 -90.388832 90.781854 148.639847 3.621476 0.000002 -12.985627 2.462994 8.354336 -0.082500 4.693536 -0.000001 -8.692398 1.532710 -0.832488 -0.454385 1.277256 0.000003 -8.792888 0.769286 -5.290128 -3.274623 0.666483 -0.000003 -8.826484 -0.000003 -2.237392 -0.577821 0.926200 -0.000002 -11.348336 -1.134821 0.295967 8.140551 2.262729 -0.000003 -7.624474 -0.667058 4.763170 22.898050 -2.072546 0.000005 -7.537332 -1.329038 14.530647 1.777603 -4.338406 0.000002 -9.728073 0.000011 -0.000001 0.000000 0.000000 -0.000006 -8.105976 -5.517333 -0.000007 13.476463 16.406765 -18.898018 0.000005 0.000000 -42.128412 -8.321346 -94.209271 -28.740997 0.000000 0.000009 125.833914 -71.966623 127.214076 -20.953501 -0.000015 -0.000005 -0.000937 0.011615 4.606978 -4.628060 2.916215 -3.441371 0.000002 -0.000000 0.000009 -12.341459 0.000005 0.079107 0.000004 -0.000001 -0.000007 -0.000004 -8.105972 -5.517332 -0.000006 -10.991343 -11.138396 18.898024 -0.000001 0.000004 -3.483825 38.486671 87.438402 28.740992 -0.000012 0.000005 7.984436 6.906247 -0.966261 20.953526 0.000000 0.000006 0.167170 1.059499 -8.966905 4.628074 2.916202 -3.441374 0.000001 -0.000002 -0.000001 12.341500 0.000004 0.079111 -0.000000 -0.000002 0.000001 -11.141666 -0.000008 0.000001 0.190778 21.033706 2.883478 -0.000004 42.399246 -0.000006 10.009421 0.000001 -0.000001 -0.000001 39.245029 -0.000007 0.857191 -6.452511 -5.103315 0.000003 3.261017 0.000003 0.000004 0.000003 -0.000000 0.000001 0.000000 -12.771153 6.799303 0.000002 -0.000000 0.000005 0.000000 -4.049006 0.000000 -0.000001 -0.000000 11.141665 -0.000001 -0.000003 -2.213518 -1.284381 0.845652 -0.000001 42.399239 -0.000010 5.164229 -0.000007 -0.000001 -0.000005 39.245029 -0.000008 -0.435946 -1.161563 -17.473661 -0.000001 3.261024 0.000002 -0.000002 -0.000006 0.000002 -0.000002 -0.000015 -12.771141 -23.529771 -0.000012 0.000001 0.000000 -0.000007 -2.960145 0.000001 0.000004 -0.000001 
